<?xml version="1.0" encoding="UTF-8"?>
<svg width="35" height="35" xmlns="http://www.w3.org/2000/svg" version="1.1" viewBox="0 0 35 35">
  <defs>
    <style>
      .cls-1 {
        fill: #ff4600;
      }

      .cls-2 {
        fill: #fff;
      }

      .cls-3 {
        isolation: isolate;
      }

      .cls-4 {
        fill: none;
        stroke: #fff;
      }

      .cls-5 {
        fill: red;
        fill-opacity: 0;
      }
    </style>
  </defs>
  <!-- Generator: Adobe Illustrator 28.6.0, SVG Export Plug-In . SVG Version: 1.2.0 Build 709)  -->
  <g>
    <g id="_레이어_1" data-name="레이어_1">
      <g id="icon">
        <rect id="bg" class="cls-5" width="30" height="30"/>
        <g id="t_bg">
          <rect class="cls-1" width="30" height="23" rx="6" ry="6"/>
          <rect class="cls-4" x=".5" y=".5" width="29" height="22" rx="5.5" ry="5.5"/>
        </g>
        <g id="MUITI_END" class="cls-3">
          <g class="cls-3">
            <path class="cls-2" d="M7.7,6.1l1.5,3.6h0l1.5-3.6h1.1v4.9h-.9v-3.4h0l-1.4,3.4h-.6l-1.4-3.4h0v3.4h-.9v-4.9h1.1Z"/>
            <path class="cls-2" d="M16.4,6.1v3.2c0,1.1-.8,1.8-2,1.8s-2-.7-2-1.8v-3.2h.9v3.2c0,.6.4,1.1,1.1,1.1.7,0,1.1-.4,1.1-1.1v-3.2h.9Z"/>
            <path class="cls-2" d="M17.8,11h-.9v-4.9h.9v4.9Z"/>
            <path class="cls-2" d="M18.2,6.1h3.9v.7h-1.5v4.2h-.9v-4.2h-1.5v-.7Z"/>
            <path class="cls-2" d="M23.4,11h-.9v-4.9h.9v4.9Z"/>
          </g>
          <g class="cls-3">
            <path class="cls-2" d="M8.8,13.1h3.2v.7h-2.3v1.4h2.2v.7h-2.2v1.4h2.3v.8h-3.2v-4.9Z"/>
            <path class="cls-2" d="M16.6,18h-.8l-2.3-3.4h0v3.4h-.9v-4.9h.8l2.3,3.4h0v-3.4h.9v4.9Z"/>
            <path class="cls-2" d="M17.2,18v-4.9h1.7c1.5,0,2.4.9,2.4,2.5,0,1.5-.9,2.5-2.4,2.5h-1.7ZM18.8,17.2c1,0,1.6-.6,1.6-1.7s-.5-1.7-1.5-1.7h-.8v3.4h.7Z"/>
          </g>
        </g>
        <g id="arrow">
          <path class="cls-1" d="M15,29.5c0,0-.1,0-.2,0l-4.3-4.8s0,0,0,0c0,0,0,0,0,0h8.9s0,0,0,0c0,0,0,0,0,0l-4.3,4.8c0,0-.1,0-.2,0Z"/>
          <path class="cls-2" d="M11.5,25l3.5,3.9,3.5-3.9h-6.9M10.5,24h8.9c.5,0,.7.6.4,1l-4.3,4.8c-.3.3-.8.3-1.1,0l-4.3-4.8c-.3-.4,0-1,.4-1Z"/>
        </g>
      </g>
    </g>
  </g>
</svg>