<?xml version="1.0" encoding="UTF-8"?>
<svg width="35" height="35" xmlns="http://www.w3.org/2000/svg" version="1.1" viewBox="0 0 35 35">
  <defs>
    <style>
      .cls-1 {
        fill: #00464d;
      }

      .cls-2 {
        fill: #fff;
      }

      .cls-3 {
        isolation: isolate;
      }

      .cls-4 {
        fill: none;
        stroke: #fff;
      }

      .cls-5 {
        fill: red;
        fill-opacity: 0;
      }
    </style>
  </defs>
  <!-- Generator: Adobe Illustrator 28.6.0, SVG Export Plug-In . SVG Version: 1.2.0 Build 709)  -->
  <g>
    <g id="_레이어_1" data-name="레이어_1">
      <g id="icon">
        <rect id="bg" class="cls-5" width="30" height="30"/>
        <g id="t_bg">
          <rect class="cls-1" width="30" height="23" rx="6" ry="6"/>
          <rect class="cls-4" x=".5" y=".5" width="29" height="22" rx="5.5" ry="5.5"/>
        </g>
        <g id="MUITI_START" class="cls-3">
          <g class="cls-3">
            <path class="cls-2" d="M7.7,6.1l1.5,3.6h0l1.5-3.6h1.1v4.9h-.9v-3.4h0l-1.4,3.4h-.6l-1.4-3.4h0v3.4h-.9v-4.9h1.1Z"/>
            <path class="cls-2" d="M16.4,6.1v3.2c0,1.1-.8,1.8-2,1.8s-2-.7-2-1.8v-3.2h.9v3.2c0,.6.4,1.1,1.1,1.1.7,0,1.1-.4,1.1-1.1v-3.2h.9Z"/>
            <path class="cls-2" d="M17.8,11h-.9v-4.9h.9v4.9Z"/>
            <path class="cls-2" d="M18.2,6.1h3.9v.7h-1.5v4.2h-.9v-4.2h-1.5v-.7Z"/>
            <path class="cls-2" d="M23.4,11h-.9v-4.9h.9v4.9Z"/>
          </g>
          <g class="cls-3">
            <path class="cls-2" d="M7,13.7c-.6,0-.9.3-.9.6,0,.4.4.6.8.7h.5c.7.3,1.4.7,1.4,1.5s-.7,1.5-1.9,1.5-1.9-.6-1.9-1.5h.9c0,.5.5.8,1,.8.6,0,1-.3,1-.7,0-.4-.4-.6-.9-.7h-.6c-.8-.4-1.3-.8-1.3-1.5s.8-1.5,1.8-1.5,1.8.6,1.8,1.4h-.9c0-.4-.4-.7-.9-.7Z"/>
            <path class="cls-2" d="M9,13.1h3.9v.7h-1.5v4.2h-.9v-4.2h-1.5v-.7Z"/>
            <path class="cls-2" d="M12.4,18l1.7-4.9h1.1l1.7,4.9h-1l-.4-1.2h-1.9l-.4,1.2h-1ZM15.4,16.1l-.7-2h0l-.7,2h1.4Z"/>
            <path class="cls-2" d="M17.2,13.1h1.9c1.1,0,1.7.6,1.7,1.6,0,.7-.3,1.2-.9,1.4l1.1,2h-1l-1-1.8h-.9v1.8h-.9v-4.9ZM19,15.4c.7,0,1-.3,1-.8s-.3-.8-1-.8h-.8v1.6h.8Z"/>
            <path class="cls-2" d="M21,13.1h3.9v.7h-1.5v4.2h-.9v-4.2h-1.5v-.7Z"/>
          </g>
        </g>
        <g id="arrow">
          <path class="cls-1" d="M15,29.5c0,0-.1,0-.2,0l-4.3-4.8s0,0,0,0c0,0,0,0,0,0h8.9s0,0,0,0c0,0,0,0,0,0l-4.3,4.8c0,0-.1,0-.2,0Z"/>
          <path class="cls-2" d="M11.5,25l3.5,3.9,3.5-3.9h-6.9M10.5,24h8.9c.5,0,.7.6.4,1l-4.3,4.8c-.3.3-.8.3-1.1,0l-4.3-4.8c-.3-.4,0-1,.4-1Z"/>
        </g>
      </g>
    </g>
  </g>
</svg>