<svg xmlns="http://www.w3.org/2000/svg"
    xmlns:xlink="http://www.w3.org/1999/xlink" width="1235" height="1235" viewBox="0 0 7410 7410">
    <!-- Outer circle, now filling the entire viewBox -->
    <circle cx="3705" cy="3705" r="3705" fill="white" />
    <!-- Mask for the circular shape -->
    <mask id="circleMask">
        <circle cx="3705" cy="3705" r="3705" fill="white"/>
    </mask>
    <!-- Red and white stripes for the flag (filling the entire circle) -->
    <g mask="url(#circleMask)">
        <path fill="#BB133E" d="M0 0h7410v7410H0z"/>
        <path stroke="#FFF" stroke-width="300" d="M0 450h7410m0 600H0m0 600h7410m0 600H0m0 600h7410m0 600H0m0 600h7410m0 600H0m0 600h7410m0 600H0m0 600h7410m0 600H0"/>
        <path fill="#BB133E" d="M0 6900h7410v300H0z"/>
        <!-- White stripes in the bottom red area, same as the first red area -->
        <path stroke="#FFF" stroke-width="300" d="M0 7050h7410m0 600H0"/>
    </g>
    <!-- Blue rectangle for the stars -->
    <g mask="url(#circleMask)">
        <path fill="#002664" d="M0 0h2964v3000H0z"/>
        <g fill="#FFF">
            <g id="d">
                <g id="c">
                    <g id="e">
                        <g id="b">
                            <path id="a" d="m247 90 70.534 217.082-184.66-134.164h228.253L176.466 307.082z"/>
                            <use xlink:href="#a" y="420"/>
                            <use xlink:href="#a" y="840"/>
                            <use xlink:href="#a" y="1260"/>
                            <use xlink:href="#a" y="1680"/>
                            <use xlink:href="#a" y="2100"/>
                            <use xlink:href="#a" y="2520"/>
                        </g>
                        <use xlink:href="#a" y="1680"/>
                    </g>
                    <use xlink:href="#b" x="247" y="210"/>
                </g>
                <use xlink:href="#c" x="494"/>
            </g>
            <use xlink:href="#d" x="988"/>
            <use xlink:href="#c" x="1976"/>
            <use xlink:href="#e" x="2470"/>
        </g>
    </g>
    <!-- Inner circle mask to remove overflow -->
    <circle cx="3705" cy="3705" r="3705" fill="none" stroke="white" stroke-width="1500"/>
</svg>
